<?xml version="1.0" encoding="iso-8859-1"?>
<!-- Uploaded to: SVG Repo, www.svgrepo.com, Generator: SVG Repo Mixer Tools -->
<svg version="1.1" id="Layer_1" xmlns="http://www.w3.org/2000/svg" xmlns:xlink="http://www.w3.org/1999/xlink" 
	 viewBox="0 0 484.8 484.8" xml:space="preserve">
<circle style="fill:#C42014;" cx="242.4" cy="242.4" r="242.4"/>
<path style="fill:#840202;" d="M0,242.4C0,376,108,484,242.4,484C376,484,484,376,484,242.4"/>
<polygon style="fill:#EBFFF6;" points="122.4,78.4 122.4,170.4 196,242.4 242.4,196 "/>
<polyline style="fill:#D6EAE0;" points="122.4,170.4 196,242.4 242.4,196 "/>
<polygon style="fill:#EBFFF6;" points="122.4,314.4 122.4,406.4 242.4,288.8 196,242.4 "/>
<polyline style="fill:#D6EAE0;" points="242.4,288.8 196,242.4 122.4,314.4 "/>
<polygon style="fill:#EBFFF6;" points="362.4,406.4 362.4,314.4 289.6,243.2 242.4,288.8 "/>
<polyline style="fill:#D6EAE0;" points="362.4,314.4 289.6,243.2 242.4,288.8 "/>
<polygon style="fill:#EBFFF6;" points="362.4,78.4 242.4,196 289.6,243.2 362.4,170.4 "/>
<polyline style="fill:#D6EAE0;" points="242.4,196 289.6,243.2 362.4,170.4 "/>
<rect x="196.255" y="242.281" transform="matrix(-0.7071 0.7071 -0.7071 -0.7071 507.3135 275.2267)" style="fill:#EBFFF6;" width="0.8" height="0.8"/>
</svg>